<svg xmlns="http://www.w3.org/2000/svg" xmlns:xlink="http://www.w3.org/1999/xlink" width="40" zoomAndPan="magnify" viewBox="0 0 30 30.000001" height="40" preserveAspectRatio="xMidYMid meet" version="1.0"><defs><clipPath id="83b750e8d0"><path d="M 0.484375 0 L 29.515625 0 L 29.515625 29.03125 L 0.484375 29.03125 Z M 0.484375 0 " clip-rule="nonzero"/></clipPath><clipPath id="e26aa4eb34"><path d="M 0.484375 0 L 29.515625 0 L 29.515625 29 L 0.484375 29 Z M 0.484375 0 " clip-rule="nonzero"/></clipPath><clipPath id="3a799b0ddb"><path d="M 0.484375 0 L 29.515625 0 L 29.515625 29.03125 L 0.484375 29.03125 Z M 0.484375 0 " clip-rule="nonzero"/></clipPath></defs><g clip-path="url(#83b750e8d0)"><path fill="#ffffff" d="M 0.484375 0 L 29.515625 0 L 29.515625 29.03125 L 0.484375 29.03125 Z M 0.484375 0 " fill-opacity="1" fill-rule="nonzero"/><path fill="#ffffff" d="M 0.484375 0 L 29.515625 0 L 29.515625 29.03125 L 0.484375 29.03125 Z M 0.484375 0 " fill-opacity="1" fill-rule="nonzero"/></g><g clip-path="url(#e26aa4eb34)"><path fill="#000000" d="M 3.816406 0.117188 C 1.738281 0.117188 0.578125 1.183594 0.570312 3.363281 L 0.570312 25.820312 C 0.578125 27.859375 1.621094 28.929688 3.695312 28.933594 L 26.316406 28.933594 C 28.382812 28.929688 29.429688 27.914062 29.425781 25.820312 L 29.425781 3.363281 C 29.429688 1.234375 28.382812 0.117188 26.253906 0.117188 C 26.253906 0.117188 3.800781 0.109375 3.816406 0.117188 " fill-opacity="1" fill-rule="nonzero"/></g><g clip-path="url(#3a799b0ddb)"><path stroke-linecap="butt" transform="matrix(0.0120133, 0, 0, -0.0119758, -0.333037, 29.857138)" fill="none" stroke-linejoin="miter" d="M 345.40275 2483.336 C 172.418077 2483.336 75.845807 2394.289281 75.195489 2212.2817 L 75.195489 337.081732 C 75.845807 166.816576 162.663303 77.443678 335.322816 77.117499 L 2218.319502 77.117499 C 2390.328697 77.443678 2477.471351 162.250077 2477.146192 337.081732 L 2477.146192 2212.2817 C 2477.471351 2390.048961 2390.328697 2483.336 2213.116955 2483.336 C 2213.116955 2483.336 344.102113 2483.988357 345.40275 2483.336 Z M 345.40275 2483.336 " stroke="#ffffff" stroke-width="14.2" stroke-opacity="1" stroke-miterlimit="10"/></g><path fill="#ffffff" d="M 8.523438 4.550781 L 16.859375 4.550781 C 20.507812 4.546875 23.191406 7.800781 23.191406 11.148438 C 23.191406 14.914062 19.996094 17.722656 16.679688 17.722656 L 12.308594 17.722656 L 12.308594 24.152344 L 8.523438 24.152344 L 8.523438 4.550781 " fill-opacity="1" fill-rule="nonzero"/><path fill="#000000" d="M 12.355469 8.179688 L 16.667969 8.179688 C 18.058594 8.183594 19.464844 9.472656 19.46875 11.195312 C 19.464844 12.917969 18.15625 14.113281 16.621094 14.117188 L 12.355469 14.117188 L 12.355469 8.179688 " fill-opacity="1" fill-rule="nonzero"/></svg>